<svg width="90" height="90" viewBox="0 0 90 90" fill="none" xmlns="http://www.w3.org/2000/svg">
<rect width="90" height="90" rx="12" fill="url(#paint0_linear)"/>
<path d="M48.9286 48.3145C49.9937 48.3145 50.8571 47.4881 50.8571 46.4688C50.8571 45.4495 49.9937 44.6231 48.9286 44.6231C47.8635 44.6231 47 45.4495 47 46.4688C47 47.4881 47.8635 48.3145 48.9286 48.3145ZM45.0714 37.2403C44.0063 37.2403 43.1429 38.0667 43.1429 39.086C43.1429 40.1053 44.0063 40.9317 45.0714 40.9317C46.1365 40.9317 47 40.1053 47 39.086C47 38.0667 46.1365 37.2403 45.0714 37.2403ZM45.0714 26.1661V29.9899C42.7876 30.3039 40.6864 31.1662 38.9194 32.4338L36.0903 29.7263C35.3373 29.0055 34.1161 29.0055 33.3629 29.7263C32.6098 30.4471 32.6098 31.6157 33.3629 32.3365L36.192 35.044C34.8676 36.7351 33.9665 38.746 33.6383 40.9317H29.6429C28.5778 40.9317 27.7143 41.7581 27.7143 42.7774C27.7143 43.7967 28.5778 44.6231 29.6429 44.6231H33.6383C33.9665 46.8088 34.8675 48.8197 36.192 50.5108L33.3629 53.2183C32.6098 53.9391 32.6098 55.1077 33.3629 55.8285C34.116 56.5492 35.3372 56.5493 36.0903 55.8285L38.9194 53.1209C40.6864 54.3885 42.7876 55.2508 45.0714 55.5649V59.3887C45.0714 60.408 45.9349 61.2344 47 61.2344C48.0651 61.2344 48.9286 60.408 48.9286 59.3887V55.5649C51.2124 55.2509 53.3136 54.3886 55.0806 53.1209L57.9097 55.8285C58.6627 56.5492 59.8839 56.5493 60.6371 55.8285C61.3902 55.1077 61.3902 53.9391 60.6371 53.2183L57.808 50.5108C59.1324 48.8197 60.0334 46.8088 60.3617 44.6231H64.3571C65.4222 44.6231 66.2857 43.7967 66.2857 42.7774C66.2857 41.7581 65.4222 40.9317 64.3571 40.9317H60.3617C60.0335 38.746 59.1325 36.7351 57.808 35.044L60.6371 32.3365C61.3902 31.6157 61.3902 30.4471 60.6371 29.7263C59.884 29.0055 58.6628 29.0055 57.9097 29.7263L55.0806 32.4338C53.3136 31.1663 51.2124 30.304 48.9286 29.9899V26.1661C48.9286 25.1468 48.0651 24.3204 47 24.3204C45.9349 24.3204 45.0714 25.1468 45.0714 26.1661V26.1661ZM56.6429 42.7774C56.6429 47.8298 52.3501 52.0059 47 52.0059C41.6989 52.0059 37.3571 47.8798 37.3571 42.7774C37.3571 37.7041 41.6684 33.5489 47 33.5489C52.3011 33.5489 56.6429 37.6749 56.6429 42.7774ZM72.3647 16.7129L47.2933 13.0215C47.0989 12.9928 46.9011 12.9928 46.7067 13.0215L21.6353 16.7129C20.6945 16.8515 20 17.6262 20 18.5372V41.6673C20 49.3862 22.5329 56.7482 27.3246 62.9574C32.1163 69.1666 38.7239 73.6483 46.4329 75.9184C46.6176 75.9728 46.8088 76 47 76C47.1912 76 47.3824 75.9728 47.5671 75.9184C55.276 73.6483 61.8837 69.1665 66.6754 62.9574C71.4671 56.7484 74 49.3864 74 41.6673V18.5372C74 17.6262 73.3055 16.8515 72.3647 16.7129V16.7129ZM70.1429 41.6673C70.1429 55.6777 60.8685 67.8835 47 72.218C33.1315 67.8834 23.8571 55.6777 23.8571 41.6673V20.1207L47 16.7133L70.1429 20.1207V41.6673Z" fill="url(#paint1_linear)"/>
<path d="M43.5866 58.7849C44.1805 58.6657 44.5673 58.0788 44.4511 57.4739L44.0178 55.2239C43.898 54.601 43.2921 54.2016 42.6806 54.3546C42.1078 54.4976 41.7604 55.0946 41.8739 55.6844L41.8858 55.7447L39.0297 55.6118C38.9437 55.6082 38.869 55.55 38.8422 55.466C38.5632 54.6068 38.1962 53.7878 37.7516 53.022C37.7065 52.9444 37.7136 52.846 37.7706 52.777L39.0339 51.2469C39.2847 51.4904 39.6123 51.6168 39.9434 51.6168C40.2224 51.6168 40.5042 51.527 40.7431 51.3402C41.3215 50.8891 41.4314 50.045 40.989 49.4545L40.6226 48.9667C40.1928 48.3934 39.3918 48.2397 38.8084 48.6499C38.3061 49.0026 38.1243 49.6369 38.3061 50.1879L36.4863 51.0033C36.4038 51.04 36.3087 51.0184 36.2488 50.9509C35.4062 50.0076 34.4255 49.1958 33.3391 48.5479C33.2644 48.5033 33.2243 48.4171 33.2384 48.3302L33.7041 45.4336L34.1071 45.5981C34.6855 45.8338 35.3435 45.532 35.5499 44.925C35.743 44.3568 35.44 43.7354 34.8926 43.5127L32.8333 42.6721C32.2555 42.4365 31.5975 42.7382 31.3911 43.3453C31.198 43.9135 31.501 44.5349 32.0484 44.7583L32.1041 44.7806L30.4428 47.1542C30.3927 47.226 30.3047 47.2576 30.2208 47.2354C29.2281 46.9731 28.1868 46.8323 27.1131 46.8323C26.2635 46.8323 25.4349 46.9207 24.6339 47.0874C24.5493 47.1046 24.4627 47.068 24.4162 46.994L22.7542 44.3352L22.8126 44.3137C23.3537 44.1125 23.6891 43.5917 23.6891 43.0371C23.6891 42.8819 23.663 42.7246 23.6081 42.5708C23.6081 41.7756 23.0085 41.3474 22.2758 41.6204L20.2333 42.3797C19.5499 42.6333 19.1934 43.3984 19.4295 44.0974C19.6718 44.818 20.4771 45.1815 21.1788 44.9207L21.226 44.9035L21.5642 48.0191C21.5741 48.1068 21.529 48.1901 21.4522 48.231C20.1587 48.9121 18.9983 49.8194 18.0211 50.902C17.9619 50.9674 17.8696 50.989 17.7893 50.9552L15.2966 49.9128C15.5785 49.3754 15.4199 48.6944 14.9056 48.3496C14.3688 47.9897 13.6438 48.1571 13.2774 48.6944L12.6391 49.6319C12.2819 50.1556 12.3651 50.8855 12.8568 51.2806C13.381 51.7016 14.1285 51.5924 14.521 51.0629L16.2767 53.0859C16.3351 53.1535 16.345 53.2512 16.302 53.3295C15.5813 54.6542 15.0881 56.1255 14.876 57.688C14.8641 57.7756 14.8014 57.8467 14.7175 57.8661L11.9121 58.527L11.9092 58.1915C11.9064 57.8561 11.7711 57.5522 11.5534 57.3331C11.3364 57.1132 11.0377 56.9782 10.708 56.9782C10.0528 56.9782 9.52227 57.5234 9.52861 58.1915L9.54693 60.2699C9.55256 60.9494 10.1035 61.522 10.7693 61.504C11.4154 61.4868 11.9311 60.9451 11.9276 60.2842L14.7126 60.9502C14.7971 60.9703 14.8598 61.0414 14.8711 61.129C15.0895 62.7813 15.6228 64.3324 16.407 65.7174C16.4507 65.795 16.4429 65.892 16.3859 65.9609L15.0578 67.5515L14.9423 67.3963C14.5844 66.9135 13.901 66.8295 13.4395 67.221C13.0069 67.5888 12.9541 68.2483 13.2937 68.7059L14.1785 69.8985C14.3843 70.175 14.6964 70.3209 15.0127 70.3209C15.2318 70.3209 15.4531 70.2505 15.6419 70.1053C16.0794 69.7684 16.1822 69.1492 15.8934 68.6851L17.7505 67.8661C17.8323 67.8302 17.9267 67.8518 17.9873 67.9186C18.8637 68.8985 19.8902 69.7361 21.0302 70.3949C21.1048 70.4387 21.1464 70.5242 21.1337 70.6111L20.7061 73.5141L20.3003 73.3546C19.7197 73.1269 19.0652 73.438 18.8672 74.0472C18.6812 74.6183 18.9926 75.2354 19.5429 75.4509L21.6128 76.2627C22.1941 76.4904 22.8479 76.1801 23.0458 75.5702C23.2318 74.9998 22.9211 74.3827 22.3702 74.1664L22.3145 74.1449L23.9434 71.7497C23.9927 71.6772 24.0801 71.6441 24.1639 71.665C25.1094 71.9013 26.0965 72.0263 27.1131 72.0263H27.1145C27.2033 72.0263 27.2829 72.0816 27.3125 72.1671L27.8522 73.7059C27.2273 73.9056 26.8109 74.5342 26.8905 75.2196C26.9814 75.9962 27.7106 76.5479 28.4722 76.4502L29.2134 76.3554C29.9686 76.2584 30.5351 75.5687 30.4526 74.7964C30.3878 74.1952 29.9637 73.7268 29.4254 73.5831L29.6128 71.915C29.6227 71.8252 29.6882 71.7519 29.7756 71.7325C31.0282 71.4516 32.2097 70.9768 33.2877 70.341C33.3631 70.2972 33.4561 70.3036 33.523 70.3597L35.7585 72.2095L35.4189 72.4847C34.9307 72.8798 34.8616 73.6118 35.2759 74.0953C35.6634 74.5486 36.3433 74.5888 36.8047 74.2145L38.5414 72.8087C39.0297 72.4143 39.0987 71.6815 38.6844 71.198C38.2969 70.7454 37.6171 70.7052 37.1556 71.0788L37.1084 71.1168L35.9114 68.4667C35.8747 68.387 35.8916 68.2928 35.9522 68.2296C36.7949 67.3496 37.5121 66.3439 38.0743 65.2433C38.1152 65.1635 38.2004 65.1183 38.2878 65.1305L39.985 65.3726C39.7356 66.0824 40.1055 66.869 40.8171 67.1068C41.4955 67.3338 42.2268 66.9495 42.4762 66.267L42.8673 65.198C43.1138 64.522 42.8179 63.7483 42.1698 63.4609C41.5484 63.1858 40.8474 63.4344 40.5134 63.9961L39.105 63.022C39.0311 62.971 38.9979 62.8776 39.0219 62.79C39.3115 61.7196 39.4665 60.5931 39.4665 59.4293C39.4665 59.2346 39.4622 59.0414 39.4531 58.8496C39.4496 58.7612 39.4982 58.6801 39.5771 58.6448L42.2177 57.4688L42.3008 57.9035C42.4178 58.5091 42.9934 58.9035 43.5866 58.7849V58.7849Z" fill="#73579A"/>
<path d="M32.4775 64.1442C33.4408 64.1442 34.2217 64.8099 34.2217 65.6311C34.2217 66.4524 33.4408 67.1181 32.4775 67.1181C31.5143 67.1181 30.7334 66.4524 30.7334 65.6311C30.7334 64.8099 31.5143 64.1442 32.4775 64.1442Z" fill="#F03F83"/>
<path d="M26.1834 54.4271C27.2362 54.4271 28.0898 55.2974 28.0898 56.371C28.0898 57.4446 27.2362 58.3149 26.1834 58.3149C25.1305 58.3149 24.277 57.4446 24.277 56.371C24.277 55.2974 25.1305 54.4271 26.1834 54.4271Z" fill="#F03F83"/>
<path d="M33.6133 55.9919C34.3671 55.9919 34.9782 56.615 34.9782 57.3837C34.9782 58.1524 34.3671 58.7755 33.6133 58.7755C32.8594 58.7755 32.2483 58.1524 32.2483 57.3837C32.2483 56.615 32.8594 55.9919 33.6133 55.9919Z" fill="#F03F83"/>
<path d="M28.5722 49.2383C29.3051 49.2383 29.8992 49.8441 29.8992 50.5915C29.8992 51.3388 29.3051 51.9446 28.5722 51.9446C27.8392 51.9446 27.2451 51.3388 27.2451 50.5915C27.2451 49.8441 27.8392 49.2383 28.5722 49.2383Z" fill="#F03F83"/>
<path d="M19.6009 60.0326C19.6009 64.8751 21.8665 69.1791 25.3743 71.9024C24.9647 71.8435 24.5604 71.7639 24.1646 71.6649C24.0807 71.6441 23.9934 71.6771 23.9441 71.7497L22.3152 74.1448L22.3708 74.1664C22.9218 74.3826 23.2325 74.9997 23.0465 75.5701C22.8485 76.18 22.1947 76.4903 21.6135 76.2626L19.5435 75.4508C18.9933 75.2353 18.6819 74.6182 18.8679 74.0471C19.0659 73.4379 19.7204 73.1268 20.3009 73.3546L20.7067 73.5141L21.1344 70.611C21.1471 70.5241 21.1055 70.4386 21.0308 70.3948C19.8909 69.736 18.8644 68.8984 17.9879 67.9185C17.9273 67.8517 17.8329 67.8301 17.7512 67.8661L15.894 68.685C16.1829 69.1491 16.08 69.7684 15.6425 70.1053C15.4537 70.2504 15.2325 70.3208 15.0134 70.3208C14.697 70.3208 14.3849 70.175 14.1792 69.8984L13.2943 68.7059C12.9547 68.2482 13.0075 67.5888 13.4401 67.2209C13.9016 66.8294 14.585 66.9135 14.9429 67.3962L15.0585 67.5514L16.3865 65.9609C16.4436 65.8919 16.4513 65.7949 16.4076 65.7174C15.6235 64.3323 15.0902 62.7813 14.8717 61.129C14.8605 61.0413 14.7978 60.9702 14.7132 60.9501L11.9282 60.2842C11.9317 60.9451 11.416 61.4867 10.7699 61.504C10.1042 61.5219 9.5532 60.9494 9.54757 60.2698L9.52925 58.1915C9.52291 57.5234 10.0534 56.9781 10.7086 56.9781C11.0384 56.9781 11.3371 57.1132 11.5541 57.333C11.7718 57.5521 11.9071 57.856 11.9099 58.1915L11.9127 58.527L14.7182 57.866C14.802 57.8467 14.8647 57.7755 14.8767 57.6879C15.0887 56.1254 15.5819 54.6541 16.3027 53.3294C16.3456 53.2511 16.3358 53.1534 16.2773 53.0859L14.5216 51.0629C14.1292 51.5923 13.3817 51.7015 12.8575 51.2806C12.3657 50.8854 12.2826 50.1556 12.6398 49.6318L13.2781 48.6943C13.6444 48.157 14.3694 47.9896 14.9063 48.3495C15.4206 48.6943 15.5791 49.3754 15.2973 49.9127L17.7899 50.9551C17.8703 50.9889 17.9625 50.9673 18.0217 50.902C18.9989 49.8193 20.1593 48.912 21.4528 48.231C21.5296 48.19 21.5747 48.1067 21.5648 48.0191L21.2267 44.9034L21.1795 44.9206C20.4777 45.1814 19.6725 44.8179 19.4301 44.0974C19.1941 43.3984 19.5506 42.6333 20.234 42.3797L22.2764 41.6203C23.0091 41.3474 23.6087 41.7755 23.6087 42.5708C23.6637 42.7245 23.6897 42.8818 23.6897 43.037C23.6897 43.5916 23.3544 44.1124 22.8133 44.3136L22.7548 44.3351L24.4168 46.9939C24.4633 47.0679 24.55 47.1045 24.6345 47.0873C25.4356 46.9206 26.2641 46.8323 27.1138 46.8323C27.2137 46.8323 27.3153 46.8336 27.4147 46.8359C22.7699 49.3334 19.6009 54.3061 19.6009 60.0326V60.0326Z" fill="#73579A"/>
<path d="M20.2683 52.4187C21.0318 52.4187 21.6508 53.0498 21.6508 53.8283C21.6508 54.6068 21.0318 55.238 20.2683 55.238C19.5048 55.238 18.8859 54.6068 18.8859 53.8283C18.8859 53.0498 19.5048 52.4187 20.2683 52.4187Z" fill="#F03F83"/>
<path d="M24.899 61.7149C26.4768 62.9835 26.9135 65.101 25.8745 66.4446C24.8355 67.7882 22.7141 67.849 21.1364 66.5804C19.5586 65.3118 19.1219 63.1943 20.1609 61.8507C21.1999 60.5071 23.3213 60.4463 24.899 61.7149Z" fill="#F03F83"/>
<path d="M43.6886 59.3134C43.2629 59.3984 42.8303 59.3095 42.4703 59.0629C42.1722 58.8586 41.9533 58.5663 41.8395 58.2253L39.9895 59.0491C39.9933 59.1782 39.9952 59.3054 39.9952 59.4293C39.9952 60.5385 39.859 61.6397 39.5903 62.7066L40.4202 63.2806C40.9462 62.8109 41.7107 62.6704 42.38 62.9669C43.2806 63.366 43.712 64.4287 43.362 65.3863L42.9713 66.4553C42.6171 67.4247 41.5983 67.9354 40.6521 67.6187C40.1732 67.4584 39.7878 67.1163 39.567 66.6555C39.4414 66.3934 39.378 66.1123 39.3779 65.8298L38.4364 65.6958C38.3074 65.9369 38.1665 66.1812 38.016 66.4246C37.8604 66.6763 37.534 66.7517 37.2873 66.5931C37.0403 66.4344 36.9663 66.1017 37.122 65.85C37.2996 65.5627 37.4623 65.2748 37.6057 64.9942C37.7496 64.7129 38.0532 64.5533 38.3603 64.597L40.0581 64.8387C40.2157 64.8611 40.355 64.9547 40.4372 65.0935C40.5195 65.2323 40.5362 65.4015 40.4825 65.5542C40.4096 65.7614 40.4217 65.9844 40.5164 66.1823C40.611 66.3796 40.7762 66.526 40.9817 66.5949C41.3803 66.7282 41.8283 66.4968 41.981 66.079L42.3717 65.0099C42.5229 64.5962 42.3377 64.123 41.9588 63.9551C41.5961 63.7944 41.169 63.9321 40.9649 64.2753C40.8898 64.4015 40.7672 64.4908 40.6258 64.5223C40.4844 64.5538 40.3364 64.5246 40.2165 64.4418L38.8084 63.4678C38.5471 63.2872 38.4282 62.957 38.5124 62.6461C38.7951 61.6025 38.9384 60.5201 38.9384 59.4293C38.9384 59.2505 38.934 59.0637 38.9254 58.874C38.9114 58.565 39.0884 58.2743 39.3659 58.1508L42.0059 56.9752C42.1527 56.9098 42.3207 56.9159 42.4626 56.9917C42.6045 57.0675 42.705 57.2048 42.7359 57.3652L42.8196 57.7998C42.8487 57.9513 42.934 58.0822 43.0597 58.1683C43.1854 58.2545 43.3364 58.2856 43.4851 58.2558C43.7919 58.1944 43.9925 57.89 43.9324 57.5772L43.4994 55.3274C43.4693 55.1708 43.38 55.0372 43.248 54.9513C43.1161 54.8655 42.9593 54.8395 42.8065 54.8775C42.5176 54.9499 42.3319 55.2653 42.3926 55.5808L42.4042 55.641C42.4353 55.8032 42.3917 55.9711 42.2858 56.0964C42.1799 56.2217 42.0223 56.291 41.8615 56.2828L39.0058 56.15C38.7034 56.136 38.4361 55.9293 38.3405 55.6353C38.076 54.8208 37.7248 54.0338 37.2968 53.2963C37.1373 53.0217 37.1653 52.6736 37.3663 52.43L38.6297 50.8997C38.7235 50.7859 38.8593 50.7169 39.0047 50.7086C39.1502 50.7006 39.2927 50.7539 39.3981 50.8563C39.6813 51.1309 40.1118 51.1544 40.4218 50.9125C40.5896 50.7816 40.6973 50.592 40.7252 50.3785C40.7531 50.165 40.6976 49.9532 40.5693 49.7821L40.2033 49.2943C39.9403 48.9439 39.4491 48.8538 39.1083 49.0933C38.8186 49.2968 38.6948 49.6761 38.8071 50.0157C38.8946 50.2801 38.7695 50.5689 38.5189 50.6811L36.6989 51.4962C36.4095 51.626 36.0717 51.5527 35.858 51.3137C35.0466 50.405 34.1094 49.6309 33.0727 49.0127C32.8108 48.8568 32.6679 48.5475 32.7168 48.2431L33.1827 45.3463C33.2086 45.1851 33.3049 45.0445 33.4444 44.9642C33.584 44.8839 33.7516 44.8726 33.9005 44.9332L34.3036 45.0977C34.449 45.157 34.6075 45.1531 34.7499 45.0867C34.8923 45.0205 34.999 44.9004 35.0506 44.7487C35.1479 44.4621 34.9889 44.1318 34.6961 44.0124L32.6373 43.1726C32.492 43.1132 32.3335 43.1172 32.191 43.1835C32.0487 43.2497 31.9419 43.3698 31.8904 43.5214C31.793 43.808 31.9519 44.1384 32.2445 44.2578L32.3003 44.2805C32.4509 44.3419 32.5655 44.4704 32.6111 44.6291C32.6567 44.7878 32.6284 44.9591 32.5341 45.0937L30.8732 47.4667C30.6974 47.7179 30.3819 47.8345 30.0885 47.7569C29.1201 47.5009 28.1191 47.3711 27.113 47.3711C26.3164 47.3711 25.5178 47.4532 24.7395 47.6149C24.4424 47.6767 24.1337 47.5435 23.9707 47.2834L22.3083 44.6247C22.2221 44.487 22.2019 44.3168 22.2534 44.1621C22.3048 44.0073 22.4223 43.8848 22.5729 43.8288L22.6317 43.8069C22.8336 43.7319 22.9947 43.5812 23.0854 43.3825C23.176 43.184 23.1854 42.9612 23.1118 42.7554C23.0906 42.6963 23.0799 42.6338 23.0799 42.5708C23.0799 42.367 23.0209 42.2126 22.9138 42.1363C22.8068 42.0598 22.6445 42.0561 22.4566 42.1261L20.4143 42.8854C20.0053 43.0374 19.7876 43.5024 19.9288 43.922C19.9962 44.122 20.1414 44.2846 20.3375 44.38C20.5447 44.4808 20.7856 44.4933 20.9982 44.4143L21.045 44.3969C21.1972 44.3402 21.3667 44.358 21.5045 44.4453C21.6424 44.5325 21.7333 44.6794 21.7511 44.8438L22.0896 47.9596C22.1229 48.2662 21.9642 48.5675 21.6948 48.7093C20.4594 49.3599 19.3541 50.2203 18.4098 51.2665C18.2019 51.497 17.8719 51.5722 17.5886 51.4536L15.0963 50.4114C14.958 50.3536 14.8502 50.2388 14.7996 50.0954C14.7489 49.952 14.7603 49.7935 14.8307 49.6591C14.9888 49.3573 14.8962 48.9877 14.6152 48.7994C14.3256 48.605 13.92 48.6959 13.7115 49.0019L13.0731 49.9389C12.8684 50.2395 12.9171 50.6428 13.1841 50.8573C13.3221 50.9683 13.4934 51.0168 13.666 50.9942C13.8399 50.9713 13.9938 50.8804 14.0994 50.738C14.195 50.6091 14.3422 50.5308 14.5006 50.5245C14.6584 50.5183 14.8116 50.5849 14.9166 50.7059L16.672 52.729C16.878 52.9665 16.915 53.3127 16.7638 53.591C16.5751 53.9382 16.3995 54.3037 16.2421 54.6775C16.1269 54.9509 15.8162 55.0774 15.548 54.9599C15.2799 54.8425 15.1559 54.5257 15.271 54.2522C15.4121 53.9174 15.5666 53.5884 15.7316 53.2715L14.4743 51.8223C14.2721 51.9487 14.044 52.0312 13.801 52.0631C13.3439 52.1229 12.8929 51.9953 12.53 51.7038C11.8248 51.1372 11.6822 50.0919 12.2053 49.3242L12.8437 48.3873C13.3764 47.6054 14.4315 47.3865 15.196 47.8991C15.7678 48.2826 16.0433 48.9513 15.9471 49.6027L17.7846 50.3711C18.7282 49.3608 19.8132 48.5163 21.0151 47.8568L20.7638 45.5423C20.4621 45.5511 20.1586 45.4871 19.8825 45.3529C19.4283 45.1319 19.0897 44.7482 18.9294 44.2723C18.6023 43.3012 19.1061 42.225 20.0523 41.8732L22.0946 41.1139C22.2995 41.0376 22.5055 41 22.7038 41C23.0025 41 23.2841 41.0855 23.5198 41.2536C23.8895 41.5175 24.1106 41.9596 24.1346 42.4766C24.2716 42.9272 24.2402 43.407 24.0435 43.8376C23.9174 44.1138 23.7325 44.3499 23.5036 44.532L24.7444 46.5164C26.5262 46.1784 28.3841 46.2281 30.1399 46.6596L31.3457 44.9369C30.8711 44.499 30.674 43.8098 30.8918 43.1688C31.0389 42.7361 31.3444 42.3932 31.752 42.2034C32.154 42.0162 32.6196 42.0049 33.0298 42.1721L35.0887 43.0119C35.9113 43.3475 36.3332 44.2654 36.0492 45.1015C35.9021 45.5342 35.5967 45.8771 35.189 46.067C34.8546 46.2227 34.4758 46.2568 34.1217 46.1673L33.7952 48.1974C34.7842 48.8104 35.6868 49.5554 36.483 50.416L37.7125 49.8653C37.6781 49.2213 37.971 48.5837 38.5086 48.2059C39.3196 47.6361 40.4326 47.8267 41.0426 48.6394L41.4087 49.1272C41.7086 49.5269 41.8379 50.0217 41.7728 50.5206C41.7077 51.0194 41.4561 51.4626 41.0641 51.7684C40.4922 52.2146 39.7457 52.2747 39.131 51.9658L38.3202 52.948C38.6991 53.6283 39.0187 54.3449 39.2727 55.0838L41.3452 55.1802C41.448 54.536 41.9084 53.9929 42.5546 53.8311C42.9907 53.7219 43.439 53.7973 43.8167 54.0431C44.1891 54.2856 44.4515 54.678 44.5365 55.1201L44.9694 57.3698C45.1418 58.2658 44.5672 59.1376 43.6886 59.3134V59.3134Z" fill="#1F1B3C" fill-opacity="0.69"/>
<path d="M12.4045 57.858L14.3851 57.3915C14.4282 57.1107 14.4815 56.8256 14.5442 56.5412C14.5994 56.2906 14.8175 56.1203 15.0593 56.1203C15.0976 56.1203 15.1366 56.1247 15.1755 56.1336C15.4602 56.1988 15.6393 56.4869 15.5753 56.7773C15.5025 57.1081 15.4434 57.4393 15.3997 57.7619C15.3581 58.0688 15.1316 58.3219 14.8364 58.3913L12.0313 59.0519C11.8754 59.0886 11.7111 59.0512 11.5853 58.9501C11.4595 58.8489 11.3854 58.6951 11.384 58.5317L11.3811 58.1969C11.3778 57.822 11.0761 57.517 10.7084 57.517C10.5333 57.517 10.3689 57.5868 10.2457 57.7136C10.1224 57.8405 10.0554 58.0086 10.0569 58.1871L10.0753 60.265C10.0769 60.4555 10.1563 60.6419 10.293 60.7764C10.4215 60.9028 10.5839 60.9706 10.7555 60.9655C11.1124 60.9558 11.4013 60.6515 11.3993 60.2871C11.3984 60.1221 11.4717 59.9657 11.5983 59.8628C11.7249 59.7599 11.8909 59.7218 12.0483 59.7596L14.8337 60.4255C15.1288 60.4961 15.3542 60.7497 15.3949 61.0568C15.6004 62.6109 16.0949 64.0882 16.8646 65.448C17.0199 65.7226 16.9893 66.069 16.7882 66.3101L15.4599 67.9007C15.356 68.025 15.2034 68.0949 15.0423 68.09C14.8822 68.0853 14.7327 68.0068 14.6361 67.8765L14.521 67.7214C14.4349 67.6054 14.3095 67.5325 14.1678 67.5159C14.0265 67.4994 13.8876 67.5418 13.7775 67.6353C13.5694 67.8121 13.5414 68.1464 13.715 68.3806L14.5998 69.5734C14.7716 69.8049 15.0961 69.8509 15.3231 69.6757C15.5358 69.5117 15.5902 69.2038 15.4472 68.9745C15.3642 68.8414 15.3426 68.678 15.388 68.5272C15.4335 68.3764 15.5414 68.2535 15.6833 68.1909L17.5407 67.3718C17.8286 67.2447 18.1647 67.3184 18.3771 67.5555C19.2227 68.5 20.2028 69.2977 21.2906 69.9264C21.5541 70.0788 21.701 70.386 21.6562 70.691L21.2284 73.5939C21.2045 73.7555 21.1101 73.8973 20.9716 73.9795C20.833 74.0617 20.6654 74.0754 20.5161 74.0168L20.1107 73.8578C19.9646 73.8006 19.8062 73.8066 19.6647 73.8748C19.5232 73.943 19.4181 74.0645 19.3686 74.2168C19.275 74.5048 19.4382 74.8329 19.7326 74.9483L21.8023 75.76C21.9484 75.8173 22.1068 75.8112 22.2483 75.743C22.3898 75.6748 22.495 75.5533 22.5445 75.401C22.6381 75.113 22.4748 74.7849 22.1804 74.6694L22.1245 74.6474C21.9731 74.588 21.8569 74.4611 21.8092 74.3031C21.7615 74.145 21.7876 73.9734 21.8801 73.8375L23.5094 71.4426C23.6818 71.1893 23.9953 71.0683 24.2898 71.1418C25.2081 71.3712 26.1579 71.4875 27.1141 71.4875H27.1144C27.4262 71.4875 27.7056 71.6878 27.8098 71.9857L28.3493 73.525C28.3977 73.663 28.3888 73.8153 28.3247 73.9465C28.2605 74.0778 28.1468 74.1768 28.0094 74.2205C27.6166 74.3458 27.3667 74.7392 27.4152 75.1559C27.441 75.3775 27.5552 75.5793 27.7367 75.7241C27.9273 75.8761 28.1711 75.946 28.4061 75.9158L29.147 75.8207C29.6272 75.759 29.977 75.3259 29.9268 74.8552C29.8879 74.4918 29.6385 74.1972 29.2912 74.1045C29.0369 74.0366 28.8701 73.7883 28.9 73.5219L29.0875 71.854C29.1232 71.5357 29.3539 71.2755 29.6617 71.2064C30.842 70.9421 31.973 70.494 33.0229 69.8749C33.2859 69.7197 33.6206 69.7464 33.8558 69.9411L36.0912 71.7913C36.2157 71.8943 36.2875 72.0492 36.2866 72.2126C36.2857 72.3759 36.2122 72.5301 36.0868 72.6316L35.7467 72.907C35.6241 73.0062 35.5488 73.1485 35.5345 73.3076C35.5204 73.4664 35.5695 73.6204 35.6732 73.7413C35.8688 73.9699 36.2289 73.993 36.4761 73.7931L38.2127 72.3871C38.3353 72.2879 38.4107 72.1456 38.425 71.9866C38.4391 71.8278 38.3899 71.6737 38.2863 71.5528C38.0906 71.3244 37.7303 71.3013 37.4836 71.501L37.4367 71.5389C37.3096 71.6418 37.1432 71.6795 36.9856 71.6411C36.8278 71.6028 36.696 71.4926 36.6282 71.3424L35.4308 68.6921C35.3042 68.4118 35.3616 68.0747 35.5735 67.8534C35.6486 67.775 35.7228 67.6938 35.8111 67.596C36.0087 67.377 36.343 67.363 36.5577 67.5645C36.7724 67.7661 36.7862 68.1069 36.5886 68.3259C36.5512 68.3673 36.5161 68.4061 36.482 68.4433L37.3516 70.3681C37.96 70.1653 38.6445 70.3327 39.0822 70.8437C39.3777 71.1886 39.518 71.6292 39.4773 72.0843C39.4372 72.533 39.2158 72.9509 38.8698 73.2309L37.1331 74.6368C36.4392 75.1985 35.4484 75.1167 34.8773 74.4501C34.5818 74.1052 34.4414 73.6646 34.4822 73.2095C34.5156 72.8361 34.6744 72.4839 34.9264 72.2149L33.3605 70.9186C32.3375 71.4982 31.2466 71.9308 30.112 72.2067L29.9959 73.2403C30.533 73.5431 30.9097 74.1009 30.9778 74.7385C31.09 75.79 30.3281 76.7551 29.2794 76.8898L28.5385 76.9849C28.0266 77.0505 27.497 76.9004 27.0861 76.5729C26.6812 76.25 26.4254 75.7918 26.3662 75.2829C26.2799 74.5429 26.6147 73.8359 27.1962 73.436L26.8902 72.5631C25.9998 72.5476 25.1149 72.4392 24.2533 72.2401L23.0708 73.9783C23.5509 74.4097 23.7571 75.0961 23.5478 75.74C23.4064 76.1747 23.1054 76.5217 22.7003 76.7171C22.3009 76.9097 21.8354 76.9275 21.4231 76.7658L19.3535 75.9541C18.5265 75.6298 18.0925 74.7178 18.3657 73.8778C18.507 73.4431 18.8079 73.0961 19.2131 72.9007C19.5455 72.7404 19.9235 72.7011 20.279 72.7858L20.5788 70.7515C19.5355 70.1242 18.5863 69.3523 17.7523 68.4527L16.5593 68.9788C16.6563 69.5547 16.4405 70.1653 15.9608 70.5352C15.6257 70.7937 15.212 70.9038 14.7957 70.8447C14.3794 70.7859 14.0106 70.5652 13.7572 70.2234L12.8723 69.0306C12.3546 68.3328 12.4551 67.3562 13.1012 66.8074C13.4355 66.5234 13.857 66.3948 14.2885 66.4454C14.5605 66.4772 14.8189 66.582 15.0375 66.7446L15.8379 65.7859C15.0983 64.4255 14.6081 62.9599 14.3789 61.4236L12.3342 60.9347C12.086 61.5663 11.4855 62.0238 10.7835 62.0427C10.3264 62.0544 9.89335 61.8806 9.55912 61.5518C9.21981 61.2179 9.02269 60.7525 9.01839 60.2747L9.00007 58.1967C8.99598 57.7285 9.17177 57.2875 9.49494 56.955C9.81811 56.6224 10.2491 56.4393 10.7083 56.4393C11.5432 56.4392 12.2459 57.051 12.4045 57.858V57.858Z" fill="#1F1B3C" fill-opacity="0.69"/>
<path d="M24.4971 60.7992C24.7549 60.9385 24.8532 61.2646 24.7165 61.5275C24.5799 61.7903 24.2602 61.8908 24.0021 61.7512C22.7394 61.0688 21.3001 61.2492 20.5802 62.1805C20.1763 62.7029 20.0374 63.3952 20.189 64.1298C20.348 64.9 20.8025 65.6192 21.469 66.1548C22.1352 66.6904 22.9273 66.9727 23.6988 66.9509C24.4347 66.9297 25.0624 66.6303 25.4663 66.1078C26.0728 65.3232 26.0651 64.1522 25.4467 63.1244C25.2941 62.8707 25.3719 62.539 25.6208 62.3834C25.8695 62.2278 26.1948 62.3072 26.3474 62.5608C27.2001 63.9778 27.1799 65.6318 26.2962 66.7749C25.695 67.5526 24.7832 67.9977 23.7287 68.028C22.7096 68.0581 21.6751 67.6926 20.8147 67.001C19.9542 66.3094 19.3648 65.3685 19.1548 64.3517C18.9376 63.2991 19.1491 62.291 19.7502 61.5134C20.3833 60.6946 21.3745 60.2638 22.4409 60.2639C23.1202 60.2639 23.8301 60.4386 24.4971 60.7992V60.7992Z" fill="#1F1B3C" fill-opacity="0.69"/>
<path d="M34.7501 65.6311C34.7501 66.7482 33.7306 67.6569 32.4775 67.6569C31.2244 67.6569 30.2049 66.7482 30.2049 65.6311C30.2049 64.5141 31.2244 63.6053 32.4775 63.6053C33.7306 63.6053 34.7501 64.5141 34.7501 65.6311ZM31.2618 65.6311C31.2618 66.154 31.8072 66.5793 32.4776 66.5793C33.148 66.5793 33.6934 66.154 33.6934 65.6311C33.6934 65.1083 33.148 64.6829 32.4776 64.6829C31.8072 64.6829 31.2618 65.1083 31.2618 65.6311Z" fill="#1F1B3C" fill-opacity="0.69"/>
<path d="M28.6182 56.371C28.6182 57.74 27.5259 58.8537 26.1834 58.8537C24.8407 58.8537 23.7485 57.74 23.7485 56.371C23.7485 55.002 24.8407 53.8883 26.1834 53.8883C27.5259 53.8883 28.6182 55.002 28.6182 56.371ZM24.8054 56.371C24.8054 57.1458 25.4235 57.7761 26.1834 57.7761C26.9432 57.7761 27.5614 57.1458 27.5614 56.371C27.5614 55.5962 26.9433 54.9659 26.1834 54.9659C25.4235 54.9659 24.8054 55.5962 24.8054 56.371V56.371Z" fill="#1F1B3C" fill-opacity="0.69"/>
<path d="M35.5067 57.3837C35.5067 58.4483 34.6573 59.3144 33.6133 59.3144C32.5693 59.3144 31.7199 58.4483 31.7199 57.3837C31.7199 56.3191 32.5693 55.453 33.6133 55.453C34.6573 55.4531 35.5067 56.3191 35.5067 57.3837ZM32.7766 57.3837C32.7766 57.8541 33.1519 58.2368 33.6132 58.2368C34.0745 58.2368 34.4498 57.8541 34.4498 57.3837C34.4498 56.9133 34.0745 56.5306 33.6132 56.5306C33.152 56.5307 32.7766 56.9133 32.7766 57.3837Z" fill="#1F1B3C" fill-opacity="0.69"/>
<path d="M28.5722 48.6995C29.5952 48.6995 30.4276 49.5482 30.4276 50.5915C30.4276 51.6346 29.5953 52.4834 28.5722 52.4834C27.549 52.4834 26.7166 51.6347 26.7166 50.5915C26.7166 49.5482 27.549 48.6995 28.5722 48.6995ZM28.5722 51.4058C29.0126 51.4058 29.3708 51.0405 29.3708 50.5915C29.3708 50.1424 29.0126 49.7771 28.5722 49.7771C28.1317 49.7771 27.7734 50.1424 27.7734 50.5915C27.7734 51.0405 28.1317 51.4058 28.5722 51.4058Z" fill="#1F1B3C" fill-opacity="0.69"/>
<path d="M20.2684 51.8799C21.322 51.8799 22.1792 52.754 22.1792 53.8283C22.1792 54.9027 21.322 55.7767 20.2684 55.7767C19.2147 55.7767 18.3575 54.9027 18.3575 53.8283C18.3575 52.754 19.2147 51.8799 20.2684 51.8799ZM20.2684 54.6992C20.7393 54.6992 21.1224 54.3085 21.1224 53.8283C21.1224 53.3482 20.7393 52.9575 20.2684 52.9575C19.7974 52.9575 19.4143 53.3482 19.4143 53.8283C19.4143 54.3085 19.7974 54.6992 20.2684 54.6992Z" fill="#1F1B3C" fill-opacity="0.69"/>
<path d="M31.0282 60.5714C31.0282 60.8689 30.7917 61.1101 30.4998 61.1101H30.0327C29.7408 61.1101 29.5043 60.8689 29.5043 60.5714C29.5043 60.2738 29.7408 60.0326 30.0327 60.0326H30.4998C30.7917 60.0326 31.0282 60.2738 31.0282 60.5714Z" fill="#1F1B3C" fill-opacity="0.69"/>
<path d="M23.797 50.6144H24.2769C24.5688 50.6144 24.8053 50.8557 24.8053 51.1532C24.8053 51.4508 24.5688 51.692 24.2769 51.692H23.797C23.5051 51.692 23.2686 51.4508 23.2686 51.1532C23.2686 50.8557 23.5052 50.6144 23.797 50.6144Z" fill="#1F1B3C" fill-opacity="0.69"/>
<path d="M19.3482 58.4609C19.6401 58.4609 19.8766 58.7021 19.8766 58.9997C19.8766 59.2972 19.6401 59.5385 19.3482 59.5385H18.8859C18.594 59.5385 18.3575 59.2972 18.3575 58.9997C18.3575 58.7021 18.594 58.4609 18.8859 58.4609H19.3482Z" fill="#1F1B3C" fill-opacity="0.69"/>
<path d="M28.7331 67.8874C29.025 67.8874 29.2615 68.1286 29.2615 68.4262C29.2615 68.7237 29.025 68.965 28.7331 68.965H28.0898C27.7979 68.965 27.5614 68.7237 27.5614 68.4262C27.5614 68.1286 27.7979 67.8874 28.0898 67.8874H28.7331Z" fill="#1F1B3C" fill-opacity="0.69"/>
<path d="M32.2482 53.4461C31.9563 53.4461 31.7198 53.2048 31.7198 52.9073C31.7198 52.6097 31.9563 52.3685 32.2482 52.3685H32.9587C33.2506 52.3685 33.4871 52.6097 33.4871 52.9073C33.4871 53.2048 33.2506 53.4461 32.9587 53.4461H32.2482Z" fill="#1F1B3C" fill-opacity="0.69"/>
<defs>
<linearGradient id="paint0_linear" x1="86.4" y1="2.7" x2="17.0299" y2="101.908" gradientUnits="userSpaceOnUse">
<stop stop-color="#F03F83" stop-opacity="0.93"/>
<stop offset="0.364676" stop-color="#C2488B" stop-opacity="0.904473"/>
<stop offset="1" stop-color="#73579A" stop-opacity="0.86"/>
</linearGradient>
<linearGradient id="paint1_linear" x1="47" y1="76" x2="47" y2="13.0001" gradientUnits="userSpaceOnUse">
<stop stop-color="#4F3376"/>
<stop offset="1" stop-color="#171430"/>
</linearGradient>
</defs>
</svg>
